<svg width="194" height="23" viewBox="0 0 194 23" fill="none" xmlns="http://www.w3.org/2000/svg">
<path d="M13.7188 13.1406H4.71875V19.2344H15.2812V23H0.03125V0.25H15.25V4.04688H4.71875V9.46875H13.7188V13.1406ZM26.4375 17.3594L31.5938 0.25H36.8125L28.8906 23H24L16.1094 0.25H21.3125L26.4375 17.3594ZM52.6562 13.1406H43.6562V19.2344H54.2188V23H38.9688V0.25H54.1875V4.04688H43.6562V9.46875H52.6562V13.1406ZM75.4688 23H70.7812L61.6562 8.03125V23H56.9688V0.25H61.6562L70.7969 15.25V0.25H75.4688V23ZM96.2188 4.04688H89.25V23H84.5625V4.04688H77.6875V0.25H96.2188V4.04688ZM124.438 23H119.75L110.625 8.03125V23H105.938V0.25H110.625L119.766 15.25V0.25H124.438V23ZM141.656 18.3125H133.438L131.875 23H126.891L135.359 0.25H139.703L148.219 23H143.234L141.656 18.3125ZM134.703 14.5156H140.391L137.531 6L134.703 14.5156ZM156.469 0.25L162.312 16.75L168.125 0.25H174.281V23H169.578V16.7812L170.047 6.04688L163.906 23H160.688L154.562 6.0625L155.031 16.7812V23H150.344V0.25H156.469ZM192.062 13.1406H183.062V19.2344H193.625V23H178.375V0.25H193.594V4.04688H183.062V9.46875H192.062V13.1406Z" fill="#191919"/>
</svg>
